<svg width="64" height="64" viewBox="0 0 64 64" fill="none" xmlns="http://www.w3.org/2000/svg">
<path fill-rule="evenodd" clip-rule="evenodd" d="M0.290154 4.38016L0.103041 23.1757C-0.158404 49.4957 -1.51049 47.977 22.1881 47.9904L38.3189 48L42.9442 53.92C49.6123 62.455 51.1906 64 53.245 64C56.2119 64 57.0007 62.0454 57.0007 54.6931V48.231L59.0718 47.3152C60.2111 46.8122 61.8093 45.4035 62.6231 44.1856C64.0969 41.9808 64.1021 41.8938 63.9162 23.1757L63.7291 4.38016L58.9417 0H5.07755L0.290154 4.38016ZM59.5172 4.8864C60.7879 6.4992 60.8455 7.33696 60.8455 24.1152V41.6582L59.2724 43.2288C58.2913 44.2093 56.9661 44.8 55.748 44.8H53.7968V52.8C53.7968 57.2 53.5385 60.8 53.2226 60.8C52.4658 60.8 49.9789 57.9219 44.5052 50.7104L40.0196 44.8006L5.82985 44.8L4.50212 43.1136C3.23142 41.5002 3.17374 40.6643 3.17374 23.7952C3.17374 6.57216 3.20642 6.128 4.56684 4.68096L5.96057 3.2H58.1894L59.5172 4.8864Z" fill="black"/>
<path d="M59.5172 4.8864C60.7879 6.4992 60.8455 7.33696 60.8455 24.1152V41.6582L59.2724 43.2288C58.2913 44.2093 56.9661 44.8 55.748 44.8H53.7968V52.8C53.7968 57.2 53.5385 60.8 53.2226 60.8C52.4658 60.8 49.9789 57.9219 44.5052 50.7104L40.0196 44.8006L5.82985 44.8L4.50212 43.1136C3.23142 41.5002 3.17374 40.6643 3.17374 23.7952C3.17374 6.57216 3.20642 6.128 4.56684 4.68096L5.96057 3.2H58.1894L59.5172 4.8864Z" fill="white"/>
<path d="M16.876 36.48C16.2814 36.48 15.7277 36.3571 15.2151 36.1114C14.723 35.8656 14.4769 35.497 14.4769 35.0054V15.4982C14.4769 15.0067 14.6922 14.6381 15.1228 14.3923C15.5739 14.1466 16.0558 14.0237 16.5685 14.0237H27.2416C27.7542 14.0237 28.1233 14.249 28.3489 14.6995C28.5744 15.1296 28.6872 15.5904 28.6872 16.0819C28.6872 16.6554 28.5642 17.1571 28.3181 17.5872C28.0721 17.9968 27.7132 18.2016 27.2416 18.2016H19.2752V23.3933H23.9197C24.3913 23.3933 24.7502 23.5878 24.9962 23.977C25.2423 24.3456 25.3653 24.7757 25.3653 25.2672C25.3653 25.6768 25.2526 26.0864 25.027 26.496C24.8014 26.8851 24.4323 27.0797 23.9197 27.0797H19.2752V35.0054C19.2752 35.497 19.0189 35.8656 18.5062 36.1114C18.0141 36.3571 17.4707 36.48 16.876 36.48Z" fill="black"/>
<path d="M32.7057 36.48C32.1111 36.48 31.5574 36.3571 31.0448 36.1114C30.5527 35.8656 30.3066 35.497 30.3066 35.0054V16.4198C30.3066 15.5392 30.5527 14.9248 31.0448 14.5766C31.5574 14.208 32.1111 14.0237 32.7057 14.0237C33.2799 14.0237 33.7618 14.0749 34.1514 14.1773C34.5615 14.2592 34.9409 14.4742 35.2894 14.8224C35.638 15.1501 36.0174 15.6826 36.4275 16.4198L39.5956 21.9494L42.7637 16.4198C43.1943 15.6826 43.5737 15.1501 43.9018 14.8224C44.2504 14.4742 44.6195 14.2592 45.0091 14.1773C45.4192 14.0749 45.9113 14.0237 46.4855 14.0237C47.1006 14.0237 47.6543 14.208 48.1464 14.5766C48.6385 14.9248 48.8846 15.5392 48.8846 16.4198V35.0054C48.8846 35.497 48.6283 35.8656 48.1157 36.1114C47.6235 36.3571 47.0801 36.48 46.4855 36.48C45.8908 36.48 45.3372 36.3571 44.8245 36.1114C44.3324 35.8656 44.0863 35.497 44.0863 35.0054V23.4854L41.1335 28.5235C40.9285 28.8512 40.6824 29.0867 40.3953 29.2301C40.1082 29.353 39.8212 29.4144 39.5341 29.4144C39.2675 29.4144 38.9907 29.353 38.7036 29.2301C38.437 29.1072 38.2115 28.8717 38.0269 28.5235L35.1049 23.1782V35.0054C35.1049 35.497 34.8486 35.8656 34.3359 36.1114C33.8438 36.3571 33.3004 36.48 32.7057 36.48Z" fill="black"/>
</svg>
